<?xml version="1.0" encoding="utf-8"?>
<!-- Generator: Adobe Illustrator 24.0.1, SVG Export Plug-In . SVG Version: 6.00 Build 0)  -->
<svg version="1.1" id="Camada_1" xmlns="http://www.w3.org/2000/svg" xmlns:xlink="http://www.w3.org/1999/xlink" x="0px" y="0px"
	 viewBox="0 0 293.7 451.4" style="enable-background:new 0 0 293.7 451.4;" xml:space="preserve">
<style type="text/css">
	.st0{fill:#194F4C;}
</style>
<path class="st0" d="M223.9,169.4V79.1c0,0,1.6-61.6-73.6-63.4c-78.2-1.9-78.6,62.2-78.6,62.2v91.5H13.1v269.4h269.4V169.4H223.9z
	 M179.8,361.9c-11.8,12.1-29.3,18.2-52.6,18.2c-26.3,0-48-8.2-64.9-24.5c-16.9-16.3-25.4-37-25.4-61.9c0-25.6,8.4-46.4,25.2-62.4
	c16.8-16,38.4-24,64.9-24c11.3,0,21.1,1.9,29.4,5.7l24.4,13.8c4.6,0,7.7-1.6,9.2-4.7c1.5-3.1,2.6-7.6,3.2-13.4h4.6v72.6h-3.9
	c-6.7-18.7-11.5-31.3-14.4-37.9c-2.8-6.6-7.5-12.9-14.1-19.1c-6.6-6.1-15-9.2-25.3-9.2c-13.3,0-23.2,7.5-29.6,22.5
	c-6.4,15-9.6,32.5-9.6,52.6c0,21.6,3.9,40.3,11.6,56.2c7.7,15.9,19.1,23.8,34.1,23.8c13.9,0,25.1-5.1,33.5-15.2
	c8.4-10.1,14-23.3,16.8-39.5l3.9,0.7C198.6,334.6,191.6,349.8,179.8,361.9z M203.1,86.1v83.3H92.4V85.2c0,0,0.3-46.6,57.2-45.3
	C204.3,41.3,203.1,86.1,203.1,86.1z M254.9,372.7c-4.4,4.3-9.9,6.4-16.3,6.4c-6.3,0-11.6-2.1-16.1-6.4c-4.4-4.3-6.7-9.6-6.7-15.9
	c0-6.1,2.2-11.3,6.7-15.6c4.4-4.3,9.8-6.4,16.1-6.4c6.3,0,11.7,2.1,16.2,6.3c4.5,4.2,6.8,9.5,6.8,15.7
	C261.6,363.2,259.4,368.4,254.9,372.7z"/>
</svg>
