<?xml version="1.0" encoding="utf-8"?>
<!-- Generator: Adobe Illustrator 24.0.1, SVG Export Plug-In . SVG Version: 6.00 Build 0)  -->
<svg version="1.1" id="Camada_1" xmlns="http://www.w3.org/2000/svg" xmlns:xlink="http://www.w3.org/1999/xlink" x="0px" y="0px"
	 viewBox="0 0 261.2 396.8" style="enable-background:new 0 0 261.2 396.8;" xml:space="preserve">
<style type="text/css">
	.st0{fill-rule:evenodd;clip-rule:evenodd;fill:#194F4C;}
</style>
<g transform="translate(-175.8 -288.75)">
	<path class="st0" d="M338.8,288.8c-4.2,0-8.4,2.5-9.5,5.8c-6.8,0-14.6,3.5-19.5,6.2c-3.6,2-6.1,5.8-9.3,7.3
		c-20.5,9.7-16.2,22.8-22.3,34.8c-1.3,2.5-0.9,6.7-2.5,8.9c-3.4,4.7-19,16.6-21.8,21.4c-0.5,0.8,1.3,2.2,2.2,2.4
		c5.4,1.3,12,1.3,16.8,0.5c0.8,1.6-2.8,4.3-3.3,6c-1.1,4,2.2,9.8,1.2,12.5c-1.9,0.2-7.5,0-10,0c-5.1,0-11.7-3.7-15-1
		c-1.6,1.3-0.2,5.4-1.8,6.8c-0.5,0.4-1.7-0.1-2.2,0.3c-1.5,1.6-1.2,5.7-0.7,7.2c0.7,1.8,4.5,2.2,5.4,3.9c0.8,1.5,0.7,2.8-0.8,3.6
		c-6.8,3.8-21.3,28.8-28.7,42.1c-9.1,16.5-19.1,39.3-24.9,57.2c-6.7,20.8-25.1,107.5-11.4,124.6c45,56.5,119.1,54.9,186.8,29.7
		c10.8-4,1.8-68.4,18.5-90.8c5-6.6,12.3-18.2,17.7-27.3c2.1,0.2,2.3-0.4,2.6-1.2c0.4-1.6-0.2-1.2-0.6-2.8c6.2-8,12.5-25.4,13.8-37.3
		c0.4-3.9-2.1-3.4-2-5.3c0.2-2.7,3.6-5,3.2-7.7c-0.3-2.1-3.2-2.9-3.6-5.2c1.9-2.1,6.3-7.2,9.6-10.3c2.5,0.4,4.9-3.9,3.1-6.4
		c-3.9-5.6-10.5-9.8-17.3-11.3l0,0c-0.9-0.5-1.5-1.2-1.9-2.5c-0.1-0.3,0.6-0.7,0.8-1c0.4-0.5,0.6-1.4,0.3-2
		c-0.2-0.5-1.3-0.5-1.6-1.1c-0.9-1.8-0.2-5.6,0.3-8c3.9-0.8,7.7-2.9,10.5-5.6c12.1-10.8,18.8-28.5,14.8-44.5
		c-1.7-6.7-7.1-12.6-14.2-12.7c-0.5,0-0.9,0-1.4,0.1c-13,1.4-21.8,13.6-26.2,25c-4,10.8-5.3,25,2.8,34.1c2.7,2.8,6.1,4,9.6,4.1
		c-1,5.9-5.7,9.8-10.5,10.8c-1.7,0.3-1.3,2.5-1,3.5s1.2,1.2,1.5,2c0.3,0.7,0.4,1.6,0.3,2.6c-0.7,0.6-1.4,1.1-2.1,1.7
		c-4.1,3.5-8.5,11.1-11.8,15.7c-3.3-1.8-2-4-8.4-5.7l4.6-12.8l-2.7-1.1l1.5-5.4h2.4l0.7-1.3l-2.4-1.3l0.5-1.9l1.4-0.1
		c4.6-16.2,6-29.2-13.5-37.2c1.2-1.6,2.9-3,3.9-4.5c1.1-1.8,0.4-5.7,2.3-6.6c2.9,1.2,9.5,5,11.9-1.4c2.9-7.6-4.7-21.6-3.6-29.7
		c0.6-4,3.6-1,4.7-3.4c0.7-1.5,0-4.6,0.6-7.8c5,1.1,17.2,2.7,23.1,3.1c1.4,0.1,2.7-1.5,2-2.2c-7.5-6.8-16.9-16.2-21.6-19.9
		c-0.5-2,0.8-5.4-0.3-7.2c-4.1-6.6-6.4-10.8-8.5-22.8c-0.7-4.2-20-15.3-31.9-19c-0.5-3.7-5.5-7.9-10-8.2
		C339.4,288.8,339.1,288.7,338.8,288.8L338.8,288.8z M419.7,389.2c9.1,0,12.7,10.5,12.5,18.2c-0.4,14.1-6.5,29-18.9,36.3
		c-5.9,3.7-14.1,1.1-16.5-5.4c-5.4-13.3-0.5-28.9,7.6-39.7C408.2,394,413.3,389.4,419.7,389.2L419.7,389.2z M419.6,392
		c-0.4,0-0.7,0-1.1,0.1c-9.7,1.5-15.8,11.3-18.8,20.3c-0.9,3-1.6,6.4-1.8,9.7c0.4-3.4,1.3-6.8,2.5-9.8c4.3-10.9,18.4-25.7,28.8-14.1
		C427.2,394.7,423.7,391.9,419.6,392L419.6,392z M365.8,420.6c13.6,5.8,16.5,15,8.4,33.4l1.4,0.8l-0.3,2h-2.4l-0.1,1.8l2,1l-0.9,5.3
		l-2.8-0.3c-0.9,18.6-6.3,11.4-6.2,24.4c0.1,9.1,4.4,14.1,7.4,16.8c-0.5,0.6-1,1.2-1.6,1.8c-3.3,3.1-6.1,6.2-8.1,7.8
		c-8.3-12.5-23.9-33.3-33.3-45c-1.9-2.3-1.9-7.1,0.3-9.2c3.7-1,7.6,2.8,8.2,0.3c1.8-7.2-17.5-14.8-14.3-21.5
		c8-1.4,15.1,0.8,21.3,0.7s12.6-0.8,13.9-2.8c1.7-2.6,1.9-6,2.9-8.8c0.5-1.4,2.5-2.2,2.9-3.2C365.3,424.2,365.3,422.3,365.8,420.6
		L365.8,420.6z"/>
</g>
</svg>
